DBRep_DrawableShape

CASCADE Topology V1, (c) Matra-Datavision
Locations 17
1
              1               0               0               0 
              0               1               0               0 
              0               0               1               0 
1
              1               0               0               0 
              0               1               0               0 
              0               0               1               0 
1
              1               0               0               0 
              0               1               0               0 
              0               0               1               0 
2  2 1 3 1 0
2  2 -1 0
2  3 -1 2 -1 0
1
              0               0               1   674.997924805 
              1               0               0   1824.99523926 
              0               1               0   712.998535156 
2  2 1 7 -1 0
1
              1               0               0               0 
              0               1               0               0 
              0               0               1               0 
2  2 1 9 1 7 -1 0
2  2 1 3 1 7 -1 0
2  7 -1 0
1
              0               0               1   674.997924805 
              1               0               0  2056.994750979 
              0               1               0   712.998535156 
2  13 1 3 1 0
2  2 1 13 -1 0
2  13 -1 0
2  3 -1 13 -1 0
Curve2ds 44
1 0 -0 0 -1 
1 -49.999877929999911 -0 1 0 
1 0 -249.99938964999978 -1 -0 
1 -49.999877929999911 -5 0 1 
1 -49.999877929999911 -249.99938964999978 0 1 
1 -59.999938964999956 -5 1 0 
1 -49.999877929999911 -244.99938964999978 -1 -0 
1 -59.999938964999956 18 0 -1 
1 -59.999877929999911 -244.99938964999978 0 -1 
1 -239.99957275399993 18 1 0 
1 -59.999877929999911 -267.99938964999978 -1 -0 
1 -239.99957275399993 -5 0 1 
1 -239.999511719 -267.99938964999978 0 1 
1 -249.99957275399993 -5 1 0 
1 -239.999511719 -244.99938964999978 -1 -0 
1 -249.99957275399993 -0 0 -1 
1 -249.99945068299996 -244.99938964999978 0 -1 
1 -299.99948120099998 -0 1 0 
1 -249.99945068299996 -249.99938964999978 -1 -0 
1 -299.99935913099989 -249.99938964999978 -4.8828119244392532e-07 0.99999999999988087 
1 0 0 -1 0 
1 -119.99975585899995 -0 0 -1 
1 -119.99975585899995 -0 0 -1 
1 -119.99975585899995 -0 0 -1 
1 0 59.999938964799981 0 -1 
1 -179.99969482379993 -0 1 0 
1 -179.99969482379993 -0 1 0 
1 -179.99969482379993 -0 1 0 
1 -17.999877929700006 59.999938964799981 1 0 
1 -179.99969482379993 -17.999877929700006 0 1 
1 -179.99969482379993 -17.999877929700006 0 1 
1 -179.99969482379993 -17.999877929700006 0 1 
1 -17.999877929700006 0 0 1 
1 -119.99975585899995 -17.999877929700006 -1 -0 
1 -119.99975585899995 -17.999877929700006 -1 -0 
1 -119.99975585899995 -17.999877929700006 -1 -0 
1 -17.999877929699778 0 0 1 
1 -119.99975585899995 -249.99938964869966 -1 -0 
1 0 0 -1 0 
1 -119.99975585899995 -231.99951171899988 0 -1 
1 -17.999877929699778 59.999938964799981 1 0 
1 -179.99969482379993 -249.99938964869966 0 1 
1 0 59.999938964799981 0 -1 
1 -179.99969482379993 -231.99951171899988 1 0 
Curves 28
1 674.99792480500003 1824.9952392600001 592.99877929700006 0 1 0 
1 674.99792480500003 1824.9952392600001 642.99865722699997 0 0 -1 
1 674.99792480500003 2074.9946289099998 592.99877929700006 0 0 1 
1 674.99792480500003 1829.9952392600001 642.99865722699997 0 -1 0 
1 674.99792480500003 2074.9946289099998 642.99865722699997 0 -1 0 
1 674.99792480500003 1829.9952392600001 652.99871826200001 0 0 -1 
1 674.99792480500003 2069.9946289099998 642.99865722699997 0 0 1 
1 674.99792480500003 1806.9952392600001 652.99871826200001 0 1 0 
1 674.99792480500003 2069.9946289099998 652.99865722699997 0 1 0 
1 674.99792480500003 1806.9952392600001 832.99835205099998 0 0 -1 
1 674.99792480500003 2092.9946289099998 652.99865722699997 0 0 1 
1 674.99792480500003 1829.9952392600001 832.99835205099998 0 -1 0 
1 674.99792480500003 2092.9946289099998 832.99829101600005 0 -1 0 
1 674.99792480500003 1829.9952392600001 842.99835205099998 0 0 -1 
1 674.99792480500003 2069.9946289099998 832.99829101600005 0 0 1 
1 674.99792480500003 1824.9952392600001 842.99835205099998 0 1 0 
1 674.99792480500003 2069.9946289099998 842.99822998000002 0 1 0 
1 674.99792480500003 1824.9952392600001 892.99826049800004 0 0 -1 
1 674.99792480500003 2074.9946289099998 842.99822998000002 0 0 1 
1 674.99792480500003 2074.9946289099998 892.99813842799995 0 -0.99999999999988076 4.8828119244392521e-07 
1 0 0 0 1 0 0 
1 0 59.999938964800002 0 0 -1 0 
1 17.999877929699998 59.999938964800002 0 -1 0 0 
1 17.999877929699998 0 0 0 1 0 
1 17.999877929699998 0 0 0 1 0 
1 0 0 0 1 0 0 
1 17.999877929699998 59.999938964800002 0 -1 0 0 
1 0 59.999938964800002 0 0 -1 0 
Polygon3D 0
PolygonOnTriangulations 52
2 1 2 
p 0.976664784751666 1 0 249.99938965 
2 1 2 
p 0.100000001490116 1 0 249.99938965 
2 3 1 
p 0.976664784751666 1 0 49.9998779299999 
2 3 1 
p 0.100000001490116 1 0 49.9998779299999 
2 2 4 
p 0.976664784751666 1 0 49.9998779299999 
2 2 4 
p 0.100000001490116 1 0 49.9998779299999 
2 5 3 
p 0.976664784751666 1 0 5 
2 5 3 
p 0.100000001490116 1 0 5 
2 4 6 
p 0.976664784751666 1 0 5 
2 4 6 
p 0.100000001490116 1 0 5 
2 7 5 
p 0.976664784751666 1 0 10.000061035 
2 7 5 
p 0.100000001490116 1 0 10.000061035 
2 6 8 
p 0.976664784751666 1 0 10 
2 6 8 
p 0.100000001490116 1 0 10 
2 9 7 
p 0.976664784751666 1 0 23 
2 9 7 
p 0.100000001490116 1 0 23 
2 8 10 
p 0.976664784751666 1 0 23 
2 8 10 
p 0.100000001490116 1 0 23 
2 11 9 
p 0.976664784751666 1 0 179.999633789 
2 11 9 
p 0.100000001490116 1 0 179.999633789 
2 10 12 
p 0.976664784751666 1 0 179.999633789 
2 10 12 
p 0.100000001490116 1 0 179.999633789 
2 13 11 
p 0.976664784751666 1 0 23 
2 13 11 
p 0.100000001490116 1 0 23 
2 12 14 
p 0.976664784751666 1 0 23 
2 12 14 
p 0.100000001490116 1 0 23 
2 15 13 
p 0.976664784751666 1 0 10 
2 15 13 
p 0.100000001490116 1 0 10 
2 14 16 
p 0.976664784751666 1 0 9.99993896399997 
2 14 16 
p 0.100000001490116 1 0 9.99993896399997 
2 17 15 
p 0.976664784751666 1 0 5 
2 17 15 
p 0.100000001490116 1 0 5 
2 16 18 
p 0.976664784751666 1 0 5 
2 16 18 
p 0.100000001490116 1 0 5 
2 19 17 
p 0.976664784751666 1 0 49.9999084470001 
2 19 17 
p 0.100000001490116 1 0 49.9999084470001 
2 18 20 
p 0.976664784751666 1 0 49.9999084479999 
2 18 20 
p 0.100000001490116 1 0 49.9999084479999 
2 20 19 
p 0.976664784751666 1 0 249.99938965003 
2 20 19 
p 0.100000001490116 1 0 249.99938965003 
2 21 22 
p 0.100000001490116 1 0 17.9998779297 
2 23 21 
p 0.100000001490116 1 0 59.9999389648 
2 24 23 
p 0.100000001490116 1 0 17.9998779297 
2 22 24 
p 0.100000001490116 1 0 59.9999389648 
2 21 22 
p 0.976664784751666 1 0 59.9999389648 
2 25 26 
p 0.100000001490116 1 0 59.9999389648 
2 23 21 
p 0.976664784751666 1 0 17.9998779297 
2 27 25 
p 0.100000001490116 1 0 17.9998779297 
2 22 24 
p 0.976664784751666 1 0 17.9998779297 
2 26 28 
p 0.100000001490116 1 0 17.9998779297 
2 24 23 
p 0.976664784751666 1 0 59.9999389648 
2 28 27 
p 0.100000001490116 1 0 59.9999389648 
Surfaces 3
1 674.99792480500003 1824.9952392600001 592.99877929700006 -1 0 0 0 0 -1 -0 -1 -0 
1 0 0 0 0 0 -1 -1 0 -0 0 1 0 
1 0 0 0 0 0 -1 -1 0 -0 0 1 0 
Triangulations 2
28 30 1 2.36255459640233e-13
674.997924805 1824.99523926 592.998779297 674.997924805 2074.99462891 592.998779297 674.997924805 1824.99523926 642.998657227 674.997924805 2074.99462891 642.998657227 674.997924805 1829.99523926 642.998657227 674.997924805 2069.99462891 642.998657227 674.997924805 1829.99523926 652.998718262 674.997924805 2069.99462891 652.998657227 674.997924805 1806.99523926 652.998718262 674.997924805 2092.99462891 652.998657227 674.997924805 1806.99523926 832.998352051 674.997924805 2092.99462891 832.998291016 674.997924805 1829.99523926 832.998352051 674.997924805 2069.99462891 832.998291016 674.997924805 1829.99523926 842.998352051 674.997924805 2069.99462891 842.99822998 674.997924805 1824.99523926 842.998352051 674.997924805 2074.99462891 842.99822998 674.997924805 1824.99523926 892.998260498 674.997924805 2074.99462891 892.998138428 674.997924805 1824.99523926 712.998535156 674.997924805 1842.9951171897 712.998535156 674.997924805 1824.99523926 772.9984741208 674.997924805 1842.9951171897 772.9984741208 674.997924805 2074.9946289087 712.998535156 674.997924805 2074.9946289087 772.9984741208 674.997924805 2056.994750979 712.998535156 674.997924805 2056.994750979 772.9984741208 0 0 0 -249.99938965 -49.9998779299999 0 -49.9998779299999 -249.99938965 -49.9998779299999 -5 -49.9998779299999 -244.99938965 -59.999938965 -5 -59.9998779299999 -244.99938965 -59.999938965 18 -59.9998779299999 -267.99938965 -239.999572754 18 -239.999511719 -267.99938965 -239.999572754 -5 -239.999511719 -244.99938965 -249.999572754 -5 -249.999450683 -244.99938965 -249.999572754 0 -249.999450683 -249.99938965 -299.999481201 0 -299.999359131 -249.99938965 -119.999755859 0 -119.999755859 -17.9998779297 -179.9996948238 0 -179.9996948238 -17.9998779297 -119.999755859 -249.9993896487 -179.9996948238 -249.9993896487 -119.999755859 -231.999511719 -179.9996948238 -231.999511719 16 20 18 26 14 12 28 14 26 25 26 12 10 25 12 8 27 25 8 25 10 15 19 20 15 20 16 17 19 15 2 6 4 13 16 14 13 15 16 24 14 28 24 13 14 23 11 13 23 13 24 22 28 27 22 24 28 7 21 22 7 27 8 7 22 27 5 8 6 5 6 2 5 7 8 9 21 7 1 3 5 1 5 2 9 11 23 9 23 21 
24 24 1 2.36255459640233e-13
674.997924805 1824.99523926 592.998779297 674.997924805 2074.99462891 592.998779297 674.997924805 1824.99523926 642.998657227 674.997924805 2074.99462891 642.998657227 674.997924805 1829.99523926 642.998657227 674.997924805 2069.99462891 642.998657227 674.997924805 1829.99523926 652.998718262 674.997924805 2069.99462891 652.998657227 674.997924805 1806.99523926 652.998718262 674.997924805 2092.99462891 652.998657227 674.997924805 1806.99523926 832.998352051 674.997924805 2092.99462891 832.998291016 674.997924805 1829.99523926 832.998352051 674.997924805 2069.99462891 832.998291016 674.997924805 1829.99523926 842.998352051 674.997924805 2069.99462891 842.99822998 674.997924805 1824.99523926 842.998352051 674.997924805 2074.99462891 842.99822998 674.997924805 1824.99523926 892.998260498 674.997924805 2074.99462891 892.998138428 674.997924805 2074.9946289087 712.998535156 674.997924805 2074.9946289087 772.9984741208 674.997924805 2056.994750979 712.998535156 674.997924805 2056.994750979 772.9984741208 0 0 0 -249.99938965 -49.9998779299999 0 -49.9998779299999 -249.99938965 -49.9998779299999 -5 -49.9998779299999 -244.99938965 -59.999938965 -5 -59.9998779299999 -244.99938965 -59.999938965 18 -59.9998779299999 -267.99938965 -239.999572754 18 -239.999511719 -267.99938965 -239.999572754 -5 -239.999511719 -244.99938965 -249.999572754 -5 -249.999450683 -244.99938965 -249.999572754 0 -249.999450683 -249.99938965 -299.999481201 0 -299.999359131 -249.99938965 -119.999755859 -249.9993896487 -179.9996948238 -249.9993896487 -119.999755859 -231.999511719 -179.9996948238 -231.999511719 16 20 18 22 14 12 24 14 22 21 22 12 10 21 12 8 23 21 8 21 10 15 19 20 15 20 16 17 19 15 2 6 4 13 16 14 13 14 24 13 15 16 7 24 23 7 23 8 7 13 24 5 8 6 5 6 2 5 7 8 9 11 13 9 13 7 1 3 5 1 5 2 

TShapes 63
Ve
1e-07
674.997924805 1824.99523926 592.998779297
0 0

0101101
*
Ve
1e-07
674.997924805 2074.99462891 592.998779297
0 0

0101101
*
Ed
 1e-07 1 1 0
1  1 0 0 249.99938965
2  1 1 0 0 249.99938965
6  1 2 5
6  2 1 6
0

0101000
+63 0 -62 0 *
Ve
1e-07
674.997924805 1824.99523926 642.998657227
0 0

0101101
*
Ed
 1e-07 1 1 0
1  2 0 0 49.9998779299999
2  2 1 0 0 49.9998779299999
6  3 2 5
6  4 1 6
0

0101000
+60 0 -63 0 *
Ve
1e-07
674.997924805 2074.99462891 642.998657227
0 0

0101101
*
Ed
 1e-07 1 1 0
1  3 0 0 49.9998779299999
2  3 1 0 0 49.9998779299999
6  5 2 5
6  6 1 6
0

0101000
+62 0 -58 0 *
Ve
1e-07
674.997924805 1829.99523926 642.998657227
0 0

0101101
*
Ed
 1e-07 1 1 0
1  4 0 0 5
2  4 1 0 0 5
6  7 2 5
6  8 1 6
0

0101000
+56 0 -60 0 *
Ve
1e-07
674.997924805 2069.99462891 642.998657227
0 0

0101101
*
Ed
 1e-07 1 1 0
1  5 0 0 5
2  5 1 0 0 5
6  9 2 5
6  10 1 6
0

0101000
+58 0 -54 0 *
Ve
1e-07
674.997924805 1829.99523926 652.998718262
0 0

0101101
*
Ed
 1e-07 1 1 0
1  6 0 0 10.000061035
2  6 1 0 0 10.000061035
6  11 2 5
6  12 1 6
0

0101000
+52 0 -56 0 *
Ve
1e-07
674.997924805 2069.99462891 652.998657227
0 0

0101101
*
Ed
 1e-07 1 1 0
1  7 0 0 10
2  7 1 0 0 10
6  13 2 5
6  14 1 6
0

0101000
+54 0 -50 0 *
Ve
1e-07
674.997924805 1806.99523926 652.998718262
0 0

0101101
*
Ed
 1e-07 1 1 0
1  8 0 0 23
2  8 1 0 0 23
6  15 2 5
6  16 1 6
0

0101000
+48 0 -52 0 *
Ve
1e-07
674.997924805 2092.99462891 652.998657227
0 0

0101101
*
Ed
 1e-07 1 1 0
1  9 0 0 23
2  9 1 0 0 23
6  17 2 5
6  18 1 6
0

0101000
+50 0 -46 0 *
Ve
1e-07
674.997924805 1806.99523926 832.998352051
0 0

0101101
*
Ed
 1e-07 1 1 0
1  10 0 0 179.999633789
2  10 1 0 0 179.999633789
6  19 2 5
6  20 1 6
0

0101000
+44 0 -48 0 *
Ve
1e-07
674.997924805 2092.99462891 832.998291016
0 0

0101101
*
Ed
 1e-07 1 1 0
1  11 0 0 179.999633789
2  11 1 0 0 179.999633789
6  21 2 5
6  22 1 6
0

0101000
+46 0 -42 0 *
Ve
1e-07
674.997924805 1829.99523926 832.998352051
0 0

0101101
*
Ed
 1e-07 1 1 0
1  12 0 0 23
2  12 1 0 0 23
6  23 2 5
6  24 1 6
0

0101000
+40 0 -44 0 *
Ve
1e-07
674.997924805 2069.99462891 832.998291016
0 0

0101101
*
Ed
 1e-07 1 1 0
1  13 0 0 23
2  13 1 0 0 23
6  25 2 5
6  26 1 6
0

0101000
+42 0 -38 0 *
Ve
1e-07
674.997924805 1829.99523926 842.998352051
0 0

0101101
*
Ed
 1e-07 1 1 0
1  14 0 0 10
2  14 1 0 0 10
6  27 2 5
6  28 1 6
0

0101000
+36 0 -40 0 *
Ve
1e-07
674.997924805 2069.99462891 842.99822998
0 0

0101101
*
Ed
 1e-07 1 1 0
1  15 0 0 9.99993896399997
2  15 1 0 0 9.99993896399997
6  29 2 5
6  30 1 6
0

0101000
+38 0 -34 0 *
Ve
1e-07
674.997924805 1824.99523926 842.998352051
0 0

0101101
*
Ed
 1e-07 1 1 0
1  16 0 0 5
2  16 1 0 0 5
6  31 2 5
6  32 1 6
0

0101000
+32 0 -36 0 *
Ve
1e-07
674.997924805 2074.99462891 842.99822998
0 0

0101101
*
Ed
 1e-07 1 1 0
1  17 0 0 5
2  17 1 0 0 5
6  33 2 5
6  34 1 6
0

0101000
+34 0 -30 0 *
Ve
1e-07
674.997924805 1824.99523926 892.998260498
0 0

0101101
*
Ed
 1e-07 1 1 0
1  18 0 0 49.9999084470001
2  18 1 0 0 49.9999084470001
6  35 2 5
6  36 1 6
0

0101000
+28 0 -32 0 *
Ve
1e-07
674.997924805 2074.99462891 892.998138428
0 0

0101101
*
Ed
 1e-07 1 1 0
1  19 0 0 49.9999084479999
2  19 1 0 0 49.9999084479999
6  37 2 5
6  38 1 6
0

0101000
+30 0 -26 0 *
Ed
 1e-07 1 1 0
1  20 0 0 249.99938965003
2  20 1 0 0 249.99938965003
6  39 2 5
6  40 1 6
0

0101000
+26 0 -28 0 *
Wi

0101000
-61 4 -59 4 -57 4 -55 4 -53 4 -51 4 -49 4 -47 4 -45 4 -43 4 
-41 4 -39 4 -37 4 -35 4 -33 4 -31 4 -29 4 -27 4 -25 4 -24 4 
*
Ve
1e-07
0 0 0
0 0

0101101
*
Ve
1e-07
17.9998779297 0 0
0 0

0101101
*
Ed
 1e-07 1 1 0
1  21 0 0 17.9998779297
2  21 2 0 0 17.9998779297
2  22 1 8 0 17.9998779297
2  23 1 10 0 17.9998779297
2  24 1 11 0 17.9998779297
6  41 1 12
0

0101000
+22 0 -21 0 *
Ve
1e-07
0 59.9999389648 0
0 0

0101101
*
Ed
 1e-07 1 1 0
1  22 0 0 59.9999389648
2  25 2 0 0 59.9999389648
2  26 1 8 0 59.9999389648
2  27 1 10 0 59.9999389648
2  28 1 11 0 59.9999389648
6  42 1 12
0

0101000
+19 0 -22 0 *
Ve
1e-07
17.9998779297 59.9999389648 0
0 0

0101101
*
Ed
 1e-07 1 1 0
1  23 0 0 17.9998779297
2  29 2 0 0 17.9998779297
2  30 1 8 0 17.9998779297
2  31 1 10 0 17.9998779297
2  32 1 11 0 17.9998779297
6  43 1 12
0

0101000
+17 0 -19 0 *
Ed
 1e-07 1 1 0
1  24 0 0 59.9999389648
2  33 2 0 0 59.9999389648
2  34 1 8 0 59.9999389648
2  35 1 10 0 59.9999389648
2  36 1 11 0 59.9999389648
6  44 1 12
0

0101000
+21 0 -17 0 *
Wi

0101000
+20 7 +18 7 +16 7 +15 7 *
Ve
1e-07
17.9998779297 0 0
0 0

0101101
*
Ve
1e-07
17.9998779297 59.9999389648 0
0 0

0101101
*
Ed
 1e-07 1 1 0
1  25 0 0 59.9999389648
2  37 3 0 0 59.9999389648
2  38 1 15 0 59.9999389648
6  45 2 16
6  46 1 17
0

0101000
+13 0 -12 0 *
Ve
1e-07
0 0 0
0 0

0101101
*
Ed
 1e-07 1 1 0
1  26 0 0 17.9998779297
2  39 3 0 0 17.9998779297
2  40 1 15 0 17.9998779297
6  47 2 16
6  48 1 17
0

0101000
+10 0 -13 0 *
Ve
1e-07
0 59.9999389648 0
0 0

0101101
*
Ed
 1e-07 1 1 0
1  27 0 0 17.9998779297
2  41 3 0 0 17.9998779297
2  42 1 15 0 17.9998779297
6  49 2 16
6  50 1 17
0

0101000
+12 0 -8 0 *
Ed
 1e-07 1 1 0
1  28 0 0 59.9999389648
2  43 3 0 0 59.9999389648
2  44 1 15 0 59.9999389648
6  51 2 16
6  52 1 17
0

0101000
+8 0 -10 0 *
Wi

0101000
+11 14 +9 14 +7 14 +6 14 *
Fa
0  1e-07 1 4
2  1
0101000
+23 0 +14 0 +5 0 *
Sh

0101000
+4 0 *
Co

0100000
+3 0 *
Co

1100000
+2 1 *

+1 0 