# Blender v2.78 (sub 0) OBJ File: 'model 01.blend'
# www.blender.org
mtllib Columns.mtl
o Cube.006
v -3010.427734 -3747.637695 0.000000
v -3010.427734 -3747.637695 10999.999023
v -3010.427734 -3452.362305 0.000000
v -3010.427734 -3452.362305 10999.999023
v -2689.572266 -3747.637695 0.000000
v -2689.572266 -3747.637695 10999.999023
v -2689.572266 -3452.362305 0.000000
v -2689.572266 -3452.362305 10999.999023
v -3010.427734 -145.275879 0.000000
v -3010.427734 -145.275879 10999.999023
v -3010.427734 150.000000 0.000000
v -3010.427734 150.000000 10999.999023
v -2689.572266 -145.275879 0.000000
v -2689.572266 -145.275879 10999.999023
v -2689.572266 150.000000 0.000000
v -2689.572266 150.000000 10999.999023
v -3010.427734 3457.085938 0.000000
v -3010.427734 3457.085938 10999.999023
v -3010.427734 3752.361816 0.000000
v -3010.427734 3752.361816 10999.999023
v -2689.572266 3457.085938 0.000000
v -2689.572266 3457.085938 10999.999023
v -2689.572266 3752.361816 0.000000
v -2689.572266 3752.361816 10999.999023
v 2668.716309 -3747.637695 0.000000
v 2668.716309 -3747.637695 10999.999023
v 2668.716309 -3452.362305 0.000000
v 2668.716309 -3452.362305 10999.999023
v 2989.572266 -3747.637695 0.000000
v 2989.572266 -3747.637695 10999.999023
v 2989.572266 -3452.362305 0.000000
v 2989.572266 -3452.362305 10999.999023
v 2668.716309 -145.275879 0.000000
v 2668.716309 -145.275879 10999.999023
v 2668.716309 150.000000 0.000000
v 2668.716309 150.000000 10999.999023
v 2989.572266 -145.275879 0.000000
v 2989.572266 -145.275879 10999.999023
v 2989.572266 150.000000 0.000000
v 2989.572266 150.000000 10999.999023
v 2668.716309 3457.085938 0.000000
v 2668.716309 3457.085938 10999.999023
v 2668.716309 3752.361816 0.000000
v 2668.716309 3752.361816 10999.999023
v 2989.572266 3457.085938 0.000000
v 2989.572266 3457.085938 10999.999023
v 2989.572266 3752.361816 0.000000
v 2989.572266 3752.361816 10999.999023
vn -1.0000 0.0000 0.0000
vn 0.0000 1.0000 0.0000
vn 1.0000 0.0000 0.0000
vn 0.0000 -1.0000 0.0000
vn 0.0000 0.0000 -1.0000
vn 0.0000 0.0000 1.0000
usemtl None
s off
f 1//1 2//1 4//1 3//1
f 3//2 4//2 8//2 7//2
f 7//3 8//3 6//3 5//3
f 5//4 6//4 2//4 1//4
f 3//5 7//5 5//5 1//5
f 8//6 4//6 2//6 6//6
f 9//1 10//1 12//1 11//1
f 11//2 12//2 16//2 15//2
f 15//3 16//3 14//3 13//3
f 13//4 14//4 10//4 9//4
f 11//5 15//5 13//5 9//5
f 16//6 12//6 10//6 14//6
f 17//1 18//1 20//1 19//1
f 19//2 20//2 24//2 23//2
f 23//3 24//3 22//3 21//3
f 21//4 22//4 18//4 17//4
f 19//5 23//5 21//5 17//5
f 24//6 20//6 18//6 22//6
f 25//1 26//1 28//1 27//1
f 27//2 28//2 32//2 31//2
f 31//3 32//3 30//3 29//3
f 29//4 30//4 26//4 25//4
f 27//5 31//5 29//5 25//5
f 32//6 28//6 26//6 30//6
f 33//1 34//1 36//1 35//1
f 35//2 36//2 40//2 39//2
f 39//3 40//3 38//3 37//3
f 37//4 38//4 34//4 33//4
f 35//5 39//5 37//5 33//5
f 40//6 36//6 34//6 38//6
f 41//1 42//1 44//1 43//1
f 43//2 44//2 48//2 47//2
f 47//3 48//3 46//3 45//3
f 45//4 46//4 42//4 41//4
f 43//5 47//5 45//5 41//5
f 48//6 44//6 42//6 46//6
